<?xml version="1.0" encoding="UTF-8" standalone="no"?>
<svg width="1024px" height="1024px" viewBox="0 0 1024 1024" version="1.1" xmlns="http://www.w3.org/2000/svg" xmlns:xlink="http://www.w3.org/1999/xlink" xmlns:sketch="http://www.bohemiancoding.com/sketch/ns">
    <!-- Generator: Sketch 3.0.4 (8054) - http://www.bohemiancoding.com/sketch -->
    <title>1024</title>
    <desc>Created with Sketch.</desc>
    <defs></defs>
    <g id="Page-1" stroke="none" stroke-width="1" fill="none" fill-rule="evenodd" sketch:type="MSPage">
        <g id="1024" sketch:type="MSArtboardGroup" fill="#000000">
            <g id="belco-icon" sketch:type="MSLayerGroup" transform="translate(149.000000, 171.000000)">
                <g id="Group" transform="translate(0.333333, -0.333333)" sketch:type="MSShapeGroup">
                    <path d="M650.453333,193.664 L552.661333,193.664 C552.448,84.2453333 463.872,-4.736 354.986667,-4.736 C245.994667,-4.736 157.333333,84.2453333 157.333333,193.664 L60.224,193.664 L9.32266667,687.402667 L701.461333,687.402667 L650.453333,193.664 L650.453333,193.664 Z M355.008,43.584 C437.333333,43.584 504.384,110.848 504.554667,193.642667 L205.44,193.642667 C205.44,110.912 272.512,43.584 355.008,43.584 L355.008,43.584 Z M62.656,639.082667 L103.616,241.962667 L157.354667,241.962667 L157.354667,305.834667 C142.976,314.197333 133.333333,329.792 133.333333,347.669333 C133.333333,374.336 154.837333,396.010667 181.418667,396.010667 C207.978667,396.010667 229.504,374.336 229.504,347.669333 C229.504,329.792 219.818667,314.197333 205.461333,305.834667 L205.461333,241.962667 L504.554667,241.962667 L504.554667,305.834667 C490.218667,314.197333 480.512,329.792 480.512,347.669333 C480.512,374.336 502.058667,396.010667 528.64,396.010667 C555.178667,396.010667 576.768,374.336 576.768,347.669333 C576.768,329.792 567.061333,314.197333 552.682667,305.834667 L552.682667,241.962667 L607.146667,241.962667 L648.149333,639.082667 L62.656,639.082667 L62.656,639.082667 Z" id="Shape"></path>
                    <path d="M355.008,545.450667 C305.258667,545.450667 258.922667,520.661333 231.018667,479.125333 L191.146667,506.154667 C228.032,561.002667 289.258667,593.770667 355.008,593.770667 C420.906667,593.770667 482.218667,561.002667 519.04,506.154667 L479.168,479.125333 C451.285333,520.661333 404.885333,545.450667 355.008,545.450667 L355.008,545.450667 Z" id="Shape"></path>
                </g>
            </g>
        </g>
    </g>
</svg>